<?xml version="1.0" encoding="UTF-8" standalone="no"?>
<svg
   xmlns:dc="http://purl.org/dc/elements/1.1/"
   xmlns:cc="http://creativecommons.org/ns#"
   xmlns:rdf="http://www.w3.org/1999/02/22-rdf-syntax-ns#"
   xmlns:svg="http://www.w3.org/2000/svg"
   xmlns="http://www.w3.org/2000/svg"
   xmlns:xlink="http://www.w3.org/1999/xlink"
   xmlns:sodipodi="http://sodipodi.sourceforge.net/DTD/sodipodi-0.dtd"
   xmlns:inkscape="http://www.inkscape.org/namespaces/inkscape"
   version="1.1"
   width="64"
   height="64"
   viewbox="0 0 64 64"
   id="svg1184"
   sodipodi:docname="snowy-4.svg"
   inkscape:version="1.0.2 (e86c870879, 2021-01-15, custom)">
  <metadata
     id="metadata1188">
    <rdf:RDF>
      <cc:Work
         rdf:about="">
        <dc:format>image/svg+xml</dc:format>
        <dc:type
           rdf:resource="http://purl.org/dc/dcmitype/StillImage" />
      </cc:Work>
    </rdf:RDF>
  </metadata>
  <sodipodi:namedview
     pagecolor="#ffffff"
     bordercolor="#666666"
     borderopacity="1"
     objecttolerance="10"
     gridtolerance="10"
     guidetolerance="10"
     inkscape:pageopacity="0"
     inkscape:pageshadow="2"
     inkscape:window-width="627"
     inkscape:window-height="696"
     id="namedview1186"
     showgrid="false"
     inkscape:zoom="9.34375"
     inkscape:cx="32"
     inkscape:cy="32"
     inkscape:window-x="2085"
     inkscape:window-y="52"
     inkscape:window-maximized="0"
     inkscape:current-layer="svg1184" />
  <defs
     id="defs1163">
    <filter
       id="blur"
       width="200%"
       height="200%">
      <feGaussianBlur
         in="SourceAlpha"
         stdDeviation="3"
         id="feGaussianBlur1148" />
      <feOffset
         dx="0"
         dy="4"
         result="offsetblur"
         id="feOffset1150" />
      <feComponentTransfer
         id="feComponentTransfer1154">
        <feFuncA
           type="linear"
           slope="0.05"
           id="feFuncA1152" />
      </feComponentTransfer>
      <feMerge
         id="feMerge1160">
        <feMergeNode
           id="feMergeNode1156" />
        <feMergeNode
           in="SourceGraphic"
           id="feMergeNode1158" />
      </feMerge>
    </filter>
    <linearGradient
       inkscape:collect="always"
       xlink:href="#nube-3"
       id="linearGradient2925"
       gradientUnits="userSpaceOnUse"
       gradientTransform="translate(0,-1)"
       x1="-6.5535364"
       y1="59.101181"
       x2="47.770695"
       y2="21.688185" />
    <linearGradient
       inkscape:collect="always"
       id="nube-3">
      <stop
         style="stop-color:#2f2d59;stop-opacity:1;"
         offset="0"
         id="stop1674" />
      <stop
         style="stop-color:#27affd;stop-opacity:1"
         offset="1"
         id="stop1676" />
    </linearGradient>
    <linearGradient
       inkscape:collect="always"
       xlink:href="#nube-3"
       id="linearGradient2606"
       gradientUnits="userSpaceOnUse"
       gradientTransform="translate(0,-1)"
       x1="-6.5535364"
       y1="59.101181"
       x2="47.770695"
       y2="21.688185" />
  </defs>
  <g
     id="g2943"
     transform="translate(510.93625,88.764057)">
    <g
       id="snowy-4-6"
       transform="translate(-510.93625,-88.764057)"
       style="stroke:#27affd;stroke-opacity:1">
      <g
         transform="translate(20,10)"
         id="g698"
         style="stroke:#27affd;stroke-opacity:1">
        <g
           class="am-weather-snow-1"
           id="g696"
           style="stroke:#27affd;stroke-opacity:1">
          <g
             transform="translate(11,28)"
             id="g694"
             style="stroke:#27affd;stroke-opacity:1">
            <line
               fill="none"
               stroke="#57a0ee"
               stroke-linecap="round"
               stroke-width="1.2"
               transform="translate(0,9)"
               x1="0"
               x2="0"
               y1="-2.5"
               y2="2.5"
               id="line686"
               style="stroke:#27affd;stroke-opacity:1" />
            <line
               fill="none"
               stroke="#57a0ee"
               stroke-linecap="round"
               stroke-width="1"
               transform="rotate(45,-10.863961,4.5)"
               x1="0"
               x2="0"
               y1="-2.5"
               y2="2.5"
               id="line688"
               style="stroke:#27affd;stroke-opacity:1" />
            <line
               fill="none"
               stroke="#57a0ee"
               stroke-linecap="round"
               stroke-width="1"
               transform="rotate(90,-4.5,4.5)"
               x1="0"
               x2="0"
               y1="-2.5"
               y2="2.5"
               id="line690"
               style="stroke:#27affd;stroke-opacity:1" />
            <line
               fill="none"
               stroke="#57a0ee"
               stroke-linecap="round"
               stroke-width="1"
               transform="rotate(135,-1.863961,4.5)"
               x1="0"
               x2="0"
               y1="-2.5"
               y2="2.5"
               id="line692"
               style="stroke:#27affd;stroke-opacity:1" />
          </g>
        </g>
      </g>
    </g>
    <g
       id="g2919"
       transform="translate(-510.93625,-88.764057)">
      <path
         d="m 47.7,34.4 c 0,-4.6 -3.7,-8.2 -8.2,-8.2 -1,0 -1.9,0.2 -2.8,0.5 -0.3,-3.4 -3.1,-6.2 -6.6,-6.2 -3.7,0 -6.7,3 -6.7,6.7 0,0.8 0.2,1.6 0.4,2.3 -0.3,-0.1 -0.7,-0.1 -1,-0.1 -3.7,0 -6.7,3 -6.7,6.7 0,3.6 2.9,6.6 6.5,6.7 h 17.2 c 4.4,-0.5 7.9,-4 7.9,-8.4 z"
         fill="#57a0ee"
         stroke="#ffffff"
         stroke-linejoin="round"
         stroke-width="1.2"
         id="path2917"
         style="fill:url(#linearGradient2606);fill-opacity:1;stroke-width:0;stroke-miterlimit:4;stroke-dasharray:none" />
      <path
         d="m 47.7,34.4 c 0,-4.6 -3.7,-8.2 -8.2,-8.2 -1,0 -1.9,0.2 -2.8,0.5 -0.3,-3.4 -3.1,-6.2 -6.6,-6.2 -3.7,0 -6.7,3 -6.7,6.7 0,0.8 0.2,1.6 0.4,2.3 -0.3,-0.1 -0.7,-0.1 -1,-0.1 -3.7,0 -6.7,3 -6.7,6.7 0,3.6 2.9,6.6 6.5,6.7 h 17.2 c 4.4,-0.5 7.9,-4 7.9,-8.4 z"
         fill="#57a0ee"
         stroke="#ffffff"
         stroke-linejoin="round"
         stroke-width="1.2"
         id="path2911"
         style="fill:url(#linearGradient2925);fill-opacity:1;stroke-width:0;stroke-miterlimit:4;stroke-dasharray:none" />
    </g>
  </g>
</svg>
